<svg width="1179" height="1026" viewBox="0 0 1179 1026" fill="none" xmlns="http://www.w3.org/2000/svg">
<path d="M277.08 442.427C336.95 391.27 396.821 339.147 456.691 287.989C522.356 231.04 588.02 174.091 652.719 117.142C658.513 112.316 663.341 108.455 672.032 108.455H1050.57C1051.53 108.455 1053.46 108.455 1057.33 109.42L1012.91 148.03L419.031 663.467C366.886 708.833 314.74 755.165 261.629 799.565C212.381 841.071 156.373 851.688 96.5028 825.627C37.598 799.565 5.73139 751.304 2.83443 686.633C0.903127 629.684 2.83443 572.735 2.83443 515.785C8.62835 515.785 8.62834 520.612 10.5596 524.473C37.5979 587.213 107.125 589.144 140.923 557.291C179.549 521.577 221.072 487.794 261.629 453.045C265.492 448.219 269.355 443.393 277.08 442.427Z" fill="url(#paint0_linear_3206_49)"/>
<path d="M275.149 900.916C356.264 830.453 432.55 760.956 511.734 695.32C554.223 660.571 607.334 649.954 662.376 651.884C725.143 653.815 781.151 676.015 828.468 717.52C941.449 815.975 1054.43 913.464 1167.41 1011.92C1171.27 1015.78 1175.14 1018.67 1179 1022.54C1176.1 1027.36 1172.24 1025.43 1168.38 1025.43H795.636C787.911 1025.43 782.117 1023.5 776.323 1018.67C749.285 994.544 722.246 971.378 695.208 948.212C621.818 882.576 534.91 854.584 437.379 858.445C385.233 858.445 359.161 865.202 275.149 900.916Z" fill="url(#paint1_linear_3206_49)"/>
<path d="M277.08 442.427C229.763 482.967 184.377 525.438 135.129 565.013C93.6055 598.796 27.9412 578.526 6.69679 528.334C4.76548 523.507 2.83416 519.646 1.86851 514.82C1.86851 509.029 0.902832 502.272 0.902832 496.481V0.348389C27.9411 23.5141 52.0825 44.7493 76.2238 65.0193C138.991 119.073 201.759 174.091 265.492 228.145C273.217 234.901 276.114 240.693 276.114 251.31C276.114 315.981 277.08 379.687 277.08 442.427Z" fill="url(#paint2_linear_3206_49)"/>
<defs>
<linearGradient id="paint0_linear_3206_49" x1="0.516865" y1="474.28" x2="1056.07" y2="474.28" gradientUnits="userSpaceOnUse">
<stop stop-color="#32BEEB"/>
<stop offset="0.073" stop-color="#2DADDF"/>
<stop offset="0.24" stop-color="#248DC7"/>
<stop offset="0.413" stop-color="#1D74B4"/>
<stop offset="0.592" stop-color="#1862A7"/>
<stop offset="0.782" stop-color="#15579F"/>
<stop offset="1" stop-color="#14549C"/>
</linearGradient>
<linearGradient id="paint1_linear_3206_49" x1="399.235" y1="1115.3" x2="1024.36" y2="754.16" gradientUnits="userSpaceOnUse">
<stop stop-color="#32BEEB"/>
<stop offset="0.218" stop-color="#2AA0D5"/>
<stop offset="0.564" stop-color="#1E77B6"/>
<stop offset="0.836" stop-color="#175DA3"/>
<stop offset="1" stop-color="#14549C"/>
</linearGradient>
<linearGradient id="paint2_linear_3206_49" x1="-60.7058" y1="36.5448" x2="217.512" y2="518.592" gradientUnits="userSpaceOnUse">
<stop stop-color="#32BEEB"/>
<stop offset="0.083" stop-color="#2EB1E1"/>
<stop offset="0.362" stop-color="#2389C3"/>
<stop offset="0.618" stop-color="#1B6CAE"/>
<stop offset="0.839" stop-color="#165AA1"/>
<stop offset="1" stop-color="#14549C"/>
</linearGradient>
</defs>
</svg>
