<svg width="2640" height="858" fill="none" xmlns="http://www.w3.org/2000/svg">
    <path d="m622.867 574.582 32.19 48.284H545.612l-33.799-45.065C424.902 460.309 272.001 389.492 107.835 365.35h-4.829v257.516H0V135.195C0 78.864 46.675 32.189 103.006 32.189v255.907c32.19 1.609 65.989 6.437 98.178 12.875l35.409-12.875C368.57 239.811 481.233 172.213 577.802 59.55l22.532-27.361h53.113S524.689 228.545 265.564 318.676c148.071 51.503 284.877 151.29 357.303 255.906ZM775.77 194.745v429.73H672.764V297.752c1.609-57.942 46.675-103.007 103.006-103.007ZM1062.25 595.507v22.533h-75.641c-57.941 0-103.006-46.675-103.006-103.007V223.718h-62.77v-30.58h62.77V78.865c56.331 0 103.006 46.675 103.006 103.007v11.266h51.501v30.58h-51.501v320.286c0 22.532 17.701 40.237 40.241 40.237h25.75c4.83 1.609 9.65 4.828 9.65 11.266ZM1574.07 500.548c0 103.006-138.42 123.929-234.99 123.929-111.05 0-170.6-20.923-247.85-77.254l-1.61-49.894c59.55 75.645 162.55 98.178 254.29 98.178 48.29 0 136.81-17.704 136.81-74.036 0-115.882-402.37 25.752-402.37-217.279 0-96.569 172.21-112.663 255.91-112.663 111.05 0 189.91 38.627 238.2 90.13v46.675c-40.24-56.332-111.06-91.74-214.06-103.006-48.29-6.438-178.65 3.218-178.65 59.55 1.61 157.729 394.32-1.609 394.32 215.67ZM2639.54 500.547c0 103.006-138.42 123.93-234.99 123.93-111.05 0-170.6-20.924-247.86-77.255l-3.21-48.285c59.55 75.646 162.55 98.178 254.29 98.178 48.29 0 136.81-17.704 136.81-74.035 0-115.883-402.37 25.751-402.37-217.28 0-96.568 172.21-112.663 255.91-112.663 111.05 0 189.91 38.628 238.2 90.131v46.675c-40.24-56.332-111.05-91.74-214.06-103.007-48.29-6.438-178.65 3.219-178.65 59.551 1.61 156.119 395.93-3.219 395.93 214.06ZM1876.65 618.037l-130.37 239.812h45.07l358.91-663.104h-45.07l-212.45 391.103-210.84-391.103h-112.66l228.54 423.292h78.87Z" fill="#232323"/>
    <path d="m820.831 83.693-82.083 83.693-83.693-83.693L738.748 0l82.083 83.693Z" fill="url(#a)"/>
    <defs>
        <linearGradient id="a" x1="695.814" y1="124.927" x2="779.165" y2="41.575" gradientUnits="userSpaceOnUse">
            <stop stop-color="#32BEEB"/>
            <stop offset=".073" stop-color="#2DADDF"/>
            <stop offset=".24" stop-color="#248DC7"/>
            <stop offset=".413" stop-color="#1D74B4"/>
            <stop offset=".592" stop-color="#1862A7"/>
            <stop offset=".782" stop-color="#15579F"/>
            <stop offset="1" stop-color="#14549C"/>
        </linearGradient>
    </defs>
</svg>
