<svg width="22" height="17" viewBox="0 0 22 17" fill="none" xmlns="http://www.w3.org/2000/svg">
<path d="M12.3335 5.4165H19.6668C20.4262 5.4165 21.0418 4.80089 21.0418 4.0415C21.0418 3.28212 20.4262 2.6665 19.6668 2.6665H12.3335C11.5741 2.6665 10.9585 3.28212 10.9585 4.0415C10.9585 4.80089 11.5741 5.4165 12.3335 5.4165Z" fill="white"/>
<path d="M9.66748 11.6665L2.33413 11.6665C1.57475 11.6665 0.959133 12.2821 0.959133 13.0415C0.959133 13.8009 1.57475 14.4165 2.33413 14.4165L9.66748 14.4165C10.4269 14.4165 11.0425 13.8009 11.0425 13.0415C11.0425 12.2821 10.4269 11.6665 9.66748 11.6665Z" fill="white"/>
<path d="M4.9585 0C2.74936 0 0.958496 1.79087 0.958496 4C0.958496 6.20913 2.74936 8 4.9585 8C7.16763 8 8.9585 6.20913 8.9585 4C8.95611 1.79186 7.16667 0.00242046 4.9585 0ZM4.9585 5.81821C3.95435 5.81821 3.14032 5.00418 3.14032 4C3.14032 2.99582 3.95435 2.18182 4.9585 2.18182C5.96265 2.18182 6.77667 2.99585 6.77667 4C6.77667 5.00415 5.96268 5.81821 4.9585 5.81821Z" fill="white"/>
<path d="M16.9585 17C19.1676 17 20.9585 15.2091 20.9585 13C20.9585 10.7909 19.1676 9 16.9585 9C14.7494 9 12.9585 10.7909 12.9585 13C12.9609 15.2081 14.7503 16.9976 16.9585 17ZM16.9585 11.1818C17.9626 11.1818 18.7767 11.9958 18.7767 13C18.7767 14.0042 17.9626 14.8182 16.9585 14.8182C15.9543 14.8182 15.1403 14.0042 15.1403 13C15.1403 11.9958 15.9543 11.1818 16.9585 11.1818Z" fill="white"/>
</svg>
