<svg xmlns="http://www.w3.org/2000/svg" width="268px" height="268px" viewBox="0 0 268 268" fill="none" transform="rotate(0) scale(1, 1)">
<mask id="mask0_744_2769" style="mask-type:luminance" maskUnits="userSpaceOnUse" x="0" y="0" width="268" height="268" fill="#1e4592">
<path d="M268 0H0V268H268V0Z" fill="#ffffff"/>
</mask>
<g mask="url(#mask0_744_2769)">
<path d="M134 240.307C193.201 240.307 241.2 192.308 241.2 133.107C241.2 73.9055 193.201 25.9067 134 25.9067C74.7986 25.9067 26.7998 73.9055 26.7998 133.107C26.7998 192.308 74.7986 240.307 134 240.307Z" fill="#3767b9"/>
<path d="M176.469 56.7803H93.8002C85.9062 56.7803 79.5068 63.1796 79.5068 71.0736V180.98C79.5068 188.874 85.9062 195.274 93.8002 195.274H176.469C184.363 195.274 190.763 188.874 190.763 180.98V71.0736C190.763 63.1796 184.363 56.7803 176.469 56.7803Z" fill="url(#paint0_linear_744_2769)"/>
<path d="M129.622 74.647H93.7103C91.2928 74.647 89.333 76.6068 89.333 79.0243C89.333 81.4418 91.2928 83.4016 93.7103 83.4016H129.622C132.04 83.4016 134 81.4418 134 79.0243C134 76.6068 132.04 74.647 129.622 74.647Z" fill="#1e4592"/>
<path d="M174.289 99.4817H93.7103C91.2928 99.4817 89.333 101.441 89.333 103.859C89.333 106.277 91.2928 108.236 93.7103 108.236H174.289C176.707 108.236 178.666 106.277 178.666 103.859C178.666 101.441 176.707 99.4817 174.289 99.4817Z" fill="#9cb5e1"/>
<path d="M174.289 124.316H93.7103C91.2928 124.316 89.333 126.276 89.333 128.693C89.333 131.111 91.2928 133.071 93.7103 133.071H174.289C176.707 133.071 178.666 131.111 178.666 128.693C178.666 126.276 176.707 124.316 174.289 124.316Z" fill="#9cb5e1"/>
<path d="M174.289 149.151H93.7103C91.2928 149.151 89.333 151.111 89.333 153.528C89.333 155.946 91.2928 157.906 93.7103 157.906H174.289C176.707 157.906 178.666 155.946 178.666 153.528C178.666 151.111 176.707 149.151 174.289 149.151Z" fill="#9cb5e1"/>
<path d="M93.7103 173.986H174.289C176.71 173.986 178.666 175.942 178.666 178.363C178.666 180.784 176.71 182.74 174.289 182.74H93.7103C91.2894 182.74 89.333 180.784 89.333 178.363C89.333 175.942 91.2894 173.986 93.7103 173.986Z" fill="#9cb5e1"/>
<path d="M257.414 41.4685H203.742C201.241 41.4685 199.213 43.6036 199.213 46.23V72.7798C199.213 75.4152 201.241 77.5502 203.742 77.5502H257.414C259.915 77.5502 261.943 75.4152 261.943 72.7798V46.23C261.943 43.5946 259.915 41.4685 257.414 41.4685Z" fill="#ffffff"/>
<path d="M212.613 65.2134C215.57 65.2134 217.973 62.8103 217.973 59.8534C217.973 56.8965 215.57 54.4934 212.613 54.4934C209.656 54.4934 207.253 56.8965 207.253 59.8534C207.253 62.8103 209.656 65.2134 212.613 65.2134Z" fill="#1e4592"/>
<path d="M230.48 54.4934H248.347C251.304 54.4934 253.707 56.8965 253.707 59.8534C253.707 62.8103 251.304 65.2134 248.347 65.2134H230.48C227.523 65.2134 225.12 62.8103 225.12 59.8534C225.12 56.8965 227.523 54.4934 230.48 54.4934Z" fill="#9cb5e1"/>
<path fill-rule="evenodd" clip-rule="evenodd" d="M165.365 201.5C176.872 201.5 187.565 198.016 196.453 192.058L232.812 226.764L245.998 211.47L210.916 177.979C217.393 168.858 221.208 157.709 221.208 145.676C221.208 114.838 196.212 89.8425 165.374 89.8425C134.536 89.8425 109.541 114.838 109.541 145.676C109.541 176.514 134.536 201.509 165.374 201.509L165.365 201.5ZM212.989 145.667C212.989 171.77 191.826 192.933 165.723 192.933C139.62 192.933 118.456 171.77 118.456 145.667C118.456 119.564 139.62 98.4007 165.723 98.4007C191.826 98.4007 212.989 119.564 212.989 145.667Z" fill="#1e4592"/>
<path d="M174.129 145.613L185.912 133.875C187.02 132.714 187.619 131.168 187.601 129.569C187.583 127.97 186.931 126.451 185.796 125.317C184.662 124.191 183.125 123.539 181.517 123.521C179.909 123.503 178.355 124.102 177.185 125.201L165.375 136.939L153.592 125.201C153.029 124.602 152.341 124.129 151.591 123.798C150.831 123.468 150.018 123.289 149.196 123.28C148.375 123.271 147.553 123.423 146.784 123.727C146.016 124.039 145.328 124.495 144.739 125.076C144.158 125.656 143.693 126.344 143.381 127.103C143.068 127.863 142.916 128.676 142.925 129.498C142.934 130.319 143.113 131.123 143.443 131.883C143.774 132.633 144.256 133.312 144.855 133.875L156.656 145.613L144.855 157.352C144.256 157.914 143.774 158.593 143.443 159.344C143.113 160.094 142.934 160.907 142.925 161.729C142.916 162.551 143.068 163.364 143.381 164.123C143.693 164.882 144.149 165.57 144.739 166.151C145.319 166.732 146.016 167.187 146.784 167.5C147.553 167.813 148.366 167.964 149.196 167.947C150.027 167.929 150.84 167.759 151.591 167.428C152.35 167.098 153.029 166.624 153.592 166.026L165.401 154.288L177.211 166.026C178.39 167.053 179.918 167.607 181.49 167.554C183.063 167.5 184.555 166.857 185.662 165.758C186.77 164.65 187.413 163.167 187.458 161.604C187.503 160.041 186.949 158.522 185.903 157.352L174.12 145.613H174.129Z" fill="#1e4592"/>
<path d="M232.803 226.764L245.988 211.461L247.972 213.355C249.901 215.195 251.054 217.759 251.179 220.501C251.304 223.235 250.392 225.915 248.65 227.943C246.9 229.971 244.461 231.186 241.861 231.32C239.262 231.454 236.716 230.498 234.795 228.658L232.812 226.764H232.803Z" fill="#1e4592"/>
<path fill-rule="evenodd" clip-rule="evenodd" d="M50.3039 81.445C50.286 80.1676 50.1252 78.8901 49.8125 77.5948C48.6869 73.0566 43.6932 70.1444 38.3689 69.4565C33.0447 68.7686 27.5149 70.332 25.3799 74.2805C24.156 76.5406 23.9952 78.4881 24.4865 80.1229C24.9868 81.7577 26.1571 83.1066 27.7561 84.1607C32.2139 87.0998 40.0127 87.6984 43.5771 86.4656C45.2208 85.8938 46.8288 85.2149 48.4011 84.4288C47.5077 89.5654 44.1667 94.4251 39.7179 98.8025C30.0341 108.325 15.0172 115.552 6.83427 118.215C6.39654 118.358 6.1464 118.84 6.28934 119.304C6.42334 119.76 6.8968 120.019 7.33454 119.876C15.6783 117.169 30.99 109.782 40.8613 100.071C45.9623 95.0505 49.5981 89.4046 50.2145 83.4729C61.7385 77.0409 71.2079 65.365 79.3015 55.5473C79.6052 55.19 79.5605 54.6361 79.2121 54.3234C78.8637 54.0108 78.3367 54.0465 78.0329 54.4128C70.2699 63.8374 61.2561 75.0398 50.3039 81.445ZM48.6244 82.3741C48.6869 80.9448 48.5529 79.4886 48.1867 78.0235C47.2129 74.0929 42.7641 71.7702 38.1545 71.1806C35.3316 70.8144 32.4283 71.1181 30.1503 72.1812C28.7209 72.8512 27.5417 73.816 26.8271 75.1381C25.898 76.8622 25.6925 78.3452 26.0767 79.5958C26.4608 80.8554 27.4077 81.8738 28.6495 82.6868C32.7141 85.3668 39.8161 85.9296 43.0589 84.8129C44.9707 84.1518 46.8288 83.33 48.6333 82.3741H48.6244Z" fill="#1e4592"/>
<path d="M254.6 169.733C257.56 169.733 259.96 167.334 259.96 164.373C259.96 161.413 257.56 159.013 254.6 159.013C251.64 159.013 249.24 161.413 249.24 164.373C249.24 167.334 251.64 169.733 254.6 169.733Z" fill="#1e4592"/>
<path fill-rule="evenodd" clip-rule="evenodd" d="M52.1527 201.348C53.1086 200.991 54.118 200.517 54.8952 199.821C55.8154 198.999 56.1906 197.945 56.4407 196.837C56.7623 195.408 56.8963 193.889 57.2804 192.46C57.4234 191.924 57.7092 191.727 57.8254 191.638C58.1291 191.414 58.4328 191.352 58.7187 191.379C59.0582 191.405 59.5316 191.539 59.8354 192.147C59.88 192.236 59.9336 192.361 59.9783 192.549C60.0051 192.683 60.023 193.094 60.0587 193.264C60.1302 193.683 60.1927 194.103 60.2552 194.523C60.4518 195.926 60.559 197.114 61.1754 198.4C62.0062 200.151 62.837 201.214 63.9715 201.688C65.0614 202.143 66.3746 202.063 68.0451 201.697C68.2059 201.652 68.3578 201.625 68.5186 201.589C69.2511 201.455 69.9568 201.965 70.0998 202.733C70.2427 203.501 69.7782 204.252 69.0456 204.421C68.8938 204.457 68.7419 204.493 68.599 204.52C66.3388 205.109 63.7303 207.208 62.2116 209.04C61.7471 209.603 61.0592 211.193 60.3624 212.202C59.8443 212.944 59.2636 213.435 58.7812 213.614C58.4507 213.73 58.1827 213.712 57.9504 213.649C57.6199 213.56 57.343 213.372 57.1375 213.078C57.0214 212.917 56.9142 212.694 56.8695 212.417C56.8427 212.283 56.8427 211.943 56.8427 211.782C56.6998 211.264 56.53 210.764 56.396 210.246C56.0923 209.004 55.5027 208.218 54.797 207.182C54.1359 206.208 53.4302 205.6 52.385 205.109C52.251 205.073 51.1611 204.796 50.777 204.636C50.2142 204.403 49.9462 204.001 49.8479 203.787C49.6782 203.43 49.6692 203.108 49.696 202.849C49.7407 202.456 49.9104 202.125 50.2052 201.857C50.3839 201.688 50.6608 201.527 51.0271 201.446C51.313 201.384 52.0544 201.348 52.1616 201.348H52.1527ZM58.5579 199.329C58.6115 199.445 58.6651 199.57 58.7187 199.687C59.9336 202.25 61.3004 203.68 62.9531 204.368L63.0067 204.394C61.899 205.261 60.8984 206.226 60.1302 207.155C59.8175 207.539 59.3976 208.334 58.942 209.147C58.5311 207.744 57.8611 206.753 57.0214 205.511C56.3782 204.564 55.6992 203.85 54.8684 203.269C55.5116 202.92 56.128 202.51 56.664 202.036C57.5574 201.241 58.147 200.33 58.549 199.329H58.5579Z" fill="#1e4592"/>
</g>
<defs fill="#1e4592">
<linearGradient id="paint0_linear_744_2769" x1="135.135" y1="56.7803" x2="135.135" y2="195.274" gradientUnits="userSpaceOnUse" fill="#1e4592">
<stop stop-color="#ffffff" fill="#1e4592" data-originalstopcolor="#ffffff"/>
<stop offset="0.72" stop-color="#fafafa" fill="#1e4592" data-originalstopcolor="#fafafa"/>
</linearGradient>
</defs>
</svg>