<svg width="416" height="319" viewBox="0 0 416 319" fill="none" xmlns="http://www.w3.org/2000/svg">
<g opacity="0.2">
<path d="M93.5871 79.9516C88.3724 77.4989 79.748 81.4867 76.9974 87.3218C71.7478 98.4602 88.7261 114.592 94.8997 112.86C101.799 110.925 103.161 84.4543 93.5861 79.9516H93.5871Z" stroke="#E3E9F7" stroke-width="1.88595" stroke-miterlimit="10" stroke-linecap="round"/>
<path d="M67.5029 105.18C65.6415 104.103 45.9277 92.6995 34.7704 101.725C26.9362 108.061 26.8617 121.608 32.7487 129.221C44.4085 144.299 80.564 137.539 84.3151 126.749C86.8414 119.484 74.9807 109.505 67.5029 105.18Z" stroke="#E3E9F7" stroke-width="1.88595" stroke-miterlimit="10" stroke-linecap="round"/>
<path d="M92.8695 291.372C140.856 279.461 195.382 267.335 280.05 269.401C327.401 270.556 338.131 255.861 374.018 237.591C406.004 221.308 421.714 188.928 412.066 170.577C402.325 152.05 372.655 159.426 348.357 131.848C337.291 119.288 339.238 110.484 332.849 96.5556C312.618 52.4518 236.791 17.9796 199.399 36.2233C150 60.3247 192.232 164.464 137.012 192.911C102.083 210.907 75.6829 176.361 41.1946 202.732C24.1061 215.799 3.20604 234.129 1.58978 254.03C1.58978 254.03 -0.673356 302.688 92.8695 291.372Z" stroke="#B3CCF8" stroke-width="1.88595" stroke-miterlimit="10" stroke-linecap="round"/>
<path d="M357.992 237.179C357.992 237.179 349.3 248.704 340.605 264.517C332.768 278.777 326.807 297.991 325.491 314.033C321.799 313.858 317.744 313.694 313.36 313.539C287.396 312.617 249.913 312.04 208.235 312.04C160.852 312.04 118.893 312.787 93.1167 313.936C92.2294 313.975 91.3609 314.015 90.5122 314.055C58.3314 274.169 -6.47063 204.678 53.1648 176.091C53.1648 176.091 57.5336 174.76 64.0835 171.902C84.8138 162.854 127.414 138.508 122.675 92.6029C122.675 92.6029 121.061 84.0369 121.061 72.1178C121.061 44.2473 129.884 -1.95086 188.79 0.157623C224.461 1.43629 257.314 19.5885 277.176 48.6434C296.657 77.141 327.807 112.204 353.175 92.1861C359.031 87.5636 366.774 85.8512 374.003 87.8833C392.262 93.0121 413.006 119.563 357.992 237.179Z" fill="#DDEEFF"/>
</g>
<path opacity="0.15" d="M405.361 315.585C405.361 317.471 317.104 319 208.234 319C146.806 319 91.9405 318.514 55.7878 317.75C47.4604 317.573 40.1279 317.384 33.9354 317.181C29.857 317.048 26.2737 316.909 23.227 316.765C15.389 316.398 11.1079 316.001 11.1079 315.585C11.1079 315.056 18.0557 314.554 30.4568 314.108C35.5356 313.924 41.5273 313.751 48.3318 313.588C84.1355 312.729 142.418 312.17 208.234 312.17C266.126 312.17 318.191 312.602 354.255 313.291C386.009 313.898 405.36 314.703 405.36 315.586L405.361 315.585Z" fill="#E3F1FF"/>
<path opacity="0.7" d="M271.643 64.7817L258.73 88.9812C258.241 89.8978 257.102 90.2448 256.185 89.7554L234.786 78.336C233.87 77.8466 233.523 76.7075 234.012 75.7909L249.302 47.1378C249.792 46.2212 250.931 45.8742 251.847 46.3636L268.68 55.3463L268.733 55.5151L271.642 64.7827L271.643 64.7817Z" fill="#B9D2EF"/>
<path d="M271.643 64.7817L266.88 62.2404C266.134 61.8425 265.851 60.9146 266.25 60.1687L268.733 55.5151L271.642 64.7827L271.643 64.7817Z" fill="#0971CE"/>
<path d="M250.722 69.5081L251.128 68.7481C251.478 68.0908 251.923 67.5939 252.464 67.2582C253.004 66.9215 253.793 66.6792 254.832 66.5293C255.825 66.3991 256.521 66.235 256.922 66.0351C257.323 65.8362 257.629 65.5372 257.842 65.1403C258.079 64.6952 258.095 64.2689 257.892 63.8606C257.687 63.4523 257.291 63.0912 256.702 62.7772C255.675 62.2293 254.325 61.9398 252.652 61.9096L252.733 59.0637C254.717 59.0222 256.564 59.4588 258.276 60.3726C259.687 61.1251 260.627 62.0624 261.097 63.1836C261.567 64.3057 261.5 65.4307 260.898 66.5604C260.496 67.3138 259.977 67.873 259.343 68.2379C258.708 68.6029 257.729 68.8725 256.405 69.0451C255.489 69.1809 254.876 69.328 254.566 69.4883C254.255 69.6486 253.991 69.9343 253.773 70.3445L253.444 70.9603L250.722 69.5081ZM248.519 72.8453C248.826 72.2701 249.212 71.9174 249.677 71.7873C250.142 71.6571 250.669 71.7496 251.258 72.0636C251.826 72.3672 252.186 72.7519 252.336 73.2196C252.487 73.6874 252.413 74.2013 252.113 74.7633C251.824 75.3046 251.44 75.6459 250.959 75.7902C250.478 75.9335 249.956 75.8553 249.395 75.5563C248.82 75.2499 248.456 74.8595 248.304 74.387C248.152 73.9146 248.224 73.4007 248.519 72.8462V72.8453Z" fill="#F3F8FD"/>
<path opacity="0.7" d="M95.7409 193.301L80.4761 216.725C79.898 217.612 78.7099 217.863 77.8226 217.284L57.1102 203.785C56.2228 203.207 55.972 202.019 56.551 201.132L74.6259 173.398C75.2039 172.51 76.3921 172.26 77.2794 172.839L93.573 183.457L93.6117 183.633L95.7419 193.301H95.7409Z" fill="#B9D2EF"/>
<path d="M95.7414 193.301L91.1312 190.297C90.4088 189.826 90.2052 188.859 90.6757 188.136L93.6112 183.632L95.7414 193.3V193.301Z" fill="#0971CE"/>
<path d="M79.1628 204.236L76.4009 202.436L76.5602 196.393L71.0957 198.979L68.5054 197.291L76.1227 193.875L76.1802 186.043L78.8479 187.782L78.631 193.487L83.7165 190.954L86.3219 192.653L79.0553 195.975L79.1619 204.236H79.1628Z" fill="#F1F5FD"/>
<path opacity="0.7" d="M361.085 119.123L371.1 145.227C371.479 146.216 370.985 147.325 369.996 147.704L346.914 156.559C345.925 156.938 344.816 156.443 344.437 155.455L332.58 124.547C332.201 123.558 332.695 122.449 333.684 122.07L351.841 115.104L352.006 115.176L361.086 119.123H361.085Z" fill="#B9D2EF"/>
<path d="M361.085 119.124L355.948 121.094C355.143 121.403 354.24 121.001 353.931 120.196L352.005 115.176L361.085 119.124Z" fill="#0971CE"/>
<path d="M358.744 141.612L356.79 142.362L354.058 140.853L353.036 143.802L351.202 144.505L352.714 140.439L349.113 138.547L351.001 137.823L353.553 139.275L354.446 136.501L356.29 135.794L354.876 139.687L358.742 141.611L358.744 141.612Z" fill="#F3F8FE"/>
<path d="M357.902 124.073L340.06 130.918C339.847 131 339.608 130.893 339.526 130.68C339.444 130.467 339.55 130.228 339.763 130.146L357.605 123.301C357.818 123.219 358.058 123.325 358.14 123.538C358.222 123.751 358.115 123.991 357.902 124.073Z" fill="#F3F8FE"/>
<path d="M358.672 126.001L340.83 132.846C340.617 132.928 340.378 132.822 340.296 132.609C340.214 132.395 340.32 132.156 340.533 132.074L358.375 125.229C358.588 125.147 358.828 125.253 358.91 125.466C358.992 125.68 358.886 125.919 358.672 126.001Z" fill="#F3F8FE"/>
<path d="M359.443 127.931L341.601 134.776C341.388 134.858 341.148 134.751 341.066 134.538C340.984 134.325 341.091 134.085 341.304 134.003L359.146 127.158C359.359 127.076 359.599 127.183 359.681 127.396C359.763 127.609 359.656 127.849 359.443 127.931Z" fill="#F3F8FE"/>
<path d="M360.213 129.859L342.371 136.704C342.158 136.786 341.919 136.68 341.837 136.466C341.755 136.253 341.861 136.014 342.074 135.932L359.916 129.087C360.129 129.005 360.369 129.111 360.451 129.324C360.533 129.538 360.427 129.777 360.213 129.859Z" fill="#F3F8FE"/>
<path d="M360.839 131.851L342.997 138.697C342.784 138.779 342.544 138.672 342.462 138.459C342.38 138.246 342.487 138.006 342.7 137.924L360.542 131.079C360.755 130.997 360.994 131.104 361.077 131.317C361.159 131.53 361.052 131.769 360.839 131.851Z" fill="#F3F8FE"/>
<path opacity="0.7" d="M99.86 261.808L111.122 287.397C111.548 288.367 111.109 289.498 110.139 289.926L87.5108 299.884C86.5415 300.31 85.4099 299.871 84.9827 298.902L71.6482 268.602C71.2219 267.633 71.6614 266.501 72.6307 266.074L90.4312 258.24L90.6 258.303L99.86 261.807V261.808Z" fill="#B9D2EF"/>
<path d="M99.8601 261.808L94.8237 264.025C94.0344 264.372 93.1131 264.013 92.7661 263.225L90.6001 258.304L99.8601 261.809V261.808Z" fill="#0971CE"/>
<path d="M98.6076 284.383L96.6915 285.226L93.8899 283.851L93.0111 286.846L91.2147 287.637L92.5283 283.503L88.8403 281.788L90.6914 280.973L93.311 282.301L94.0691 279.487L95.8768 278.691L94.6528 282.649L98.6076 284.384V284.383Z" fill="#F2F6FE"/>
<path d="M96.9197 266.905L79.4285 274.603C79.2192 274.695 78.9749 274.6 78.8835 274.391C78.7911 274.181 78.8863 273.937 79.0956 273.846L96.5868 266.148C96.7962 266.056 97.0404 266.151 97.1319 266.36C97.2243 266.57 97.129 266.814 96.9197 266.905Z" fill="#F2F6FE"/>
<path d="M97.783 268.795L80.2918 276.493C80.0824 276.585 79.8382 276.49 79.7467 276.281C79.6543 276.071 79.7496 275.827 79.9589 275.736L97.4501 268.038C97.6595 267.946 97.9037 268.041 97.9952 268.25C98.0876 268.46 97.9923 268.704 97.783 268.795Z" fill="#F2F6FE"/>
<path d="M98.6458 270.684L81.1546 278.381C80.9452 278.474 80.701 278.379 80.6095 278.169C80.5171 277.96 80.6124 277.716 80.8217 277.624L98.3129 269.927C98.5222 269.834 98.7665 269.93 98.8579 270.139C98.9504 270.348 98.8551 270.592 98.6458 270.684Z" fill="#F2F6FE"/>
<path d="M99.5086 272.574L82.0174 280.271C81.808 280.363 81.5638 280.268 81.4723 280.059C81.3799 279.849 81.4752 279.605 81.6845 279.514L99.1757 271.816C99.385 271.724 99.6293 271.819 99.7207 272.028C99.8131 272.238 99.7179 272.482 99.5086 272.574Z" fill="#F2F6FE"/>
<path d="M100.228 274.533L82.7366 282.231C82.5273 282.323 82.283 282.228 82.1916 282.019C82.0992 281.809 82.1944 281.565 82.4037 281.474L99.8949 273.776C100.104 273.684 100.349 273.779 100.44 273.988C100.532 274.198 100.437 274.442 100.228 274.533Z" fill="#F2F6FE"/>
<path opacity="0.7" d="M178.032 77.0802L189.294 102.67C189.721 103.639 189.281 104.771 188.312 105.198L165.683 115.156C164.714 115.583 163.582 115.143 163.155 114.174L149.821 83.8743C149.394 82.9049 149.834 81.7733 150.803 81.3462L168.604 73.512L168.772 73.5751L178.032 77.0792V77.0802Z" fill="#B9D2EF"/>
<path d="M178.032 77.0798L172.996 79.2967C172.207 79.6437 171.285 79.2854 170.938 78.4971L168.772 73.5767L178.032 77.0807V77.0798Z" fill="#0971CE"/>
<path d="M176.781 99.6549L174.864 100.498L172.063 99.1231L171.184 102.118L169.388 102.909L170.701 98.7751L167.013 97.0599L168.864 96.2451L171.484 97.5728L172.242 94.759L174.05 93.9631L172.826 97.9208L176.781 99.6559V99.6549Z" fill="#F3F8FE"/>
<path d="M175.093 82.1768L157.601 89.8743C157.392 89.9667 157.148 89.8715 157.056 89.6621C156.964 89.4528 157.059 89.2085 157.268 89.1171L174.76 81.4196C174.969 81.3272 175.213 81.4224 175.305 81.6318C175.397 81.8411 175.302 82.0853 175.093 82.1768Z" fill="#F3F8FE"/>
<path d="M175.955 84.0667L158.464 91.7642C158.254 91.8566 158.01 91.7614 157.919 91.552C157.826 91.3427 157.921 91.0984 158.131 91.007L175.622 83.3095C175.831 83.2171 176.076 83.3123 176.167 83.5217C176.259 83.731 176.164 83.9752 175.955 84.0667Z" fill="#F3F8FE"/>
<path d="M176.818 85.9556L159.327 93.6531C159.118 93.7455 158.873 93.6503 158.782 93.4409C158.689 93.2316 158.785 92.9874 158.994 92.8959L176.485 85.1984C176.695 85.106 176.939 85.2012 177.03 85.4106C177.123 85.6199 177.027 85.8641 176.818 85.9556Z" fill="#F3F8FE"/>
<path d="M177.681 87.845L160.19 95.5425C159.98 95.6349 159.736 95.5397 159.645 95.3303C159.552 95.121 159.648 94.8768 159.857 94.7853L177.348 87.0878C177.557 86.9954 177.802 87.0906 177.893 87.3C177.986 87.5093 177.89 87.7535 177.681 87.845Z" fill="#F3F8FE"/>
<path d="M178.4 89.8042L160.909 97.5017C160.7 97.5941 160.455 97.4989 160.364 97.2896C160.272 97.0802 160.367 96.836 160.576 96.7445L178.067 89.047C178.277 88.9546 178.521 89.0499 178.612 89.2592C178.705 89.4685 178.61 89.7128 178.4 89.8042Z" fill="#F3F8FE"/>
<path d="M295.701 148.499H120.77V275.436H295.701V148.499Z" fill="#E3E9F7"/>
<path d="M295.699 132.564H120.834V148.535H295.699V132.564Z" fill="#12123B"/>
<path d="M128.922 142.358C130.407 142.358 131.61 141.214 131.61 139.803C131.61 138.392 130.407 137.248 128.922 137.248C127.438 137.248 126.235 138.392 126.235 139.803C126.235 141.214 127.438 142.358 128.922 142.358Z" fill="#E3E9F7"/>
<path d="M136.76 142.358C138.244 142.358 139.448 141.214 139.448 139.803C139.448 138.392 138.244 137.248 136.76 137.248C135.276 137.248 134.073 138.392 134.073 139.803C134.073 141.214 135.276 142.358 136.76 142.358Z" fill="#E3E9F7"/>
<path d="M144.598 142.358C146.082 142.358 147.286 141.214 147.286 139.803C147.286 138.392 146.082 137.248 144.598 137.248C143.114 137.248 141.911 138.392 141.911 139.803C141.911 141.214 143.114 142.358 144.598 142.358Z" fill="#E3E9F7"/>
<path d="M290.438 155.181H126.033V268.754H290.438V155.181Z" fill="#F4F6FC"/>
<path d="M228.007 196.984C229.218 198.182 230.406 199.31 231.54 200.49C232.996 202.005 232.374 204.417 230.389 204.997C229.342 205.302 228.408 205.046 227.632 204.273C226.487 203.135 225.349 201.991 224.152 200.792C222.993 201.953 221.867 203.076 220.748 204.204C220.218 204.737 219.604 205.08 218.836 205.104C217.65 205.141 216.779 204.621 216.244 203.581C215.73 202.583 215.899 201.396 216.695 200.565C217.711 199.504 218.763 198.479 219.808 197.446C219.958 197.297 220.153 197.195 220.387 197.028C219.133 195.782 217.987 194.645 216.843 193.507C216.129 192.797 215.812 191.945 216.028 190.952C216.485 188.844 218.994 188.063 220.577 189.549C221.633 190.539 222.637 191.583 223.655 192.611C223.803 192.76 223.906 192.954 224.074 193.187C225.323 191.938 226.464 190.802 227.602 189.661C228.24 189.02 229.002 188.692 229.908 188.804C231.021 188.942 231.804 189.554 232.18 190.606C232.556 191.664 232.312 192.628 231.535 193.428C230.542 194.451 229.52 195.446 228.512 196.455C228.363 196.604 228.22 196.76 228.008 196.982L228.007 196.984Z" fill="#0971CE"/>
<path d="M206.337 188.797C206.869 188.797 207.407 188.747 207.932 188.806C209.433 188.975 210.449 190.178 210.376 191.644C210.304 193.1 209.162 194.209 207.653 194.224C204.39 194.256 201.21 194.772 198.123 195.824C193.464 197.413 189.428 199.985 186.028 203.542C185.464 204.132 184.84 204.563 183.994 204.605C182.852 204.663 181.832 204.072 181.352 203.057C180.87 202.038 181.014 200.82 181.891 199.997C183.471 198.514 185.039 196.997 186.763 195.692C191.721 191.945 198.534 189.113 206.337 188.797Z" fill="#0971CE"/>
<path d="M207.812 210.557C212.35 210.666 216.248 212.257 219.459 215.469C220.701 216.712 220.752 218.37 219.606 219.496C218.486 220.595 216.829 220.528 215.613 219.334C211.077 214.878 204.406 214.902 199.883 219.391C198.673 220.591 197.016 220.667 195.89 219.573C194.756 218.47 194.806 216.777 196.023 215.544C199.266 212.262 203.217 210.645 207.812 210.557Z" fill="#0971CE"/>
<path d="M210.378 202.418C210.369 203.915 209.267 205.064 207.706 205.104C204.161 205.194 200.814 206.022 197.831 207.951C196.413 208.869 195.149 210.033 193.865 211.143C193.147 211.766 192.398 212.15 191.437 212.013C190.371 211.862 189.626 211.267 189.258 210.274C188.88 209.255 189.059 208.289 189.809 207.488C192.813 204.28 196.423 202.031 200.628 200.744C202.904 200.048 205.233 199.686 207.615 199.692C209.2 199.696 210.388 200.873 210.378 202.418Z" fill="#0971CE"/>
<path d="M213.24 226.914C213.24 229.896 210.788 232.352 207.793 232.367C204.792 232.382 202.284 229.871 202.313 226.882C202.343 223.888 204.812 221.446 207.793 221.461C210.789 221.478 213.239 223.93 213.24 226.915V226.914Z" fill="#0971CE"/>
</svg>
